<svg xmlns="http://www.w3.org/2000/svg" width="1200" height="630" viewBox="0 0 1200 630" role="img" aria-labelledby="title desc">
  <title id="title">AfterClick Revenue Map</title>
  <desc id="desc">A calm diagnostic card for the AfterClick ecommerce revenue map offer.</desc>
  <defs>
    <linearGradient id="bg" x1="0" x2="1" y1="0" y2="1">
      <stop offset="0" stop-color="#f6f8f4"/>
      <stop offset="1" stop-color="#eaf2ec"/>
    </linearGradient>
    <pattern id="grid" width="36" height="36" patternUnits="userSpaceOnUse">
      <path d="M36 0H0V36" fill="none" stroke="#dce6df" stroke-width="1"/>
    </pattern>
  </defs>
  <rect width="1200" height="630" fill="url(#bg)"/>
  <rect width="1200" height="630" fill="url(#grid)" opacity="0.74"/>
  <rect x="82" y="74" width="1036" height="482" rx="28" fill="#ffffff" stroke="#cbd8d0"/>
  <rect x="130" y="132" width="72" height="72" rx="16" fill="#101417"/>
  <path d="M145 178c22 0 20-28 42-28s20 28 42 28" fill="none" stroke="#ffffff" stroke-width="8" stroke-linecap="round" stroke-linejoin="round"/>
  <circle cx="222" cy="148" r="7" fill="#2fc878"/>
  <text x="226" y="158" font-family="Inter, Arial, sans-serif" font-size="38" font-weight="900" fill="#101417">AfterClick</text>
  <text x="130" y="286" font-family="Inter, Arial, sans-serif" font-size="76" font-weight="900" fill="#101417">Know what to fix</text>
  <text x="130" y="368" font-family="Inter, Arial, sans-serif" font-size="76" font-weight="900" fill="#101417">after the click.</text>
  <text x="132" y="430" font-family="Inter, Arial, sans-serif" font-size="28" font-weight="500" fill="#52656a">A 48-72h Revenue Map for ecommerce teams</text>
  <text x="132" y="470" font-family="Inter, Arial, sans-serif" font-size="28" font-weight="500" fill="#52656a">scaling paid traffic.</text>
  <rect x="790" y="140" width="250" height="122" rx="16" fill="#101417"/>
  <text x="818" y="188" font-family="Inter, Arial, sans-serif" font-size="18" font-weight="800" letter-spacing="2" fill="#ffffff">REVENUE LEAK SCORE</text>
  <text x="818" y="242" font-family="Inter, Arial, sans-serif" font-size="56" font-weight="900" fill="#ffffff">15/24</text>
  <rect x="790" y="292" width="118" height="86" rx="12" fill="#fff7e6" stroke="#e6bd64"/>
  <text x="810" y="326" font-family="Inter, Arial, sans-serif" font-size="18" font-weight="800" fill="#101417">Message</text>
  <text x="810" y="358" font-family="Inter, Arial, sans-serif" font-size="30" font-weight="900" fill="#95610f">2/3</text>
  <rect x="922" y="292" width="118" height="86" rx="12" fill="#eaf8ef" stroke="#8ed9a8"/>
  <text x="942" y="326" font-family="Inter, Arial, sans-serif" font-size="18" font-weight="800" fill="#101417">Proof</text>
  <text x="942" y="358" font-family="Inter, Arial, sans-serif" font-size="30" font-weight="900" fill="#188653">3/3</text>
  <rect x="790" y="394" width="250" height="76" rx="12" fill="#f6f8f4" stroke="#cbd8d0"/>
  <text x="818" y="438" font-family="Inter, Arial, sans-serif" font-size="24" font-weight="900" fill="#101417">5 priority leaks</text>
  <circle cx="1004" cy="436" r="8" fill="#2fc878"/>
</svg>
